<?xml version="1.0" encoding="UTF-8"?><svg id="a" xmlns="http://www.w3.org/2000/svg" viewBox="0 0 842.19 135.49"><defs><style>.b{fill:#231f20;}.c{fill:#00add8;}</style></defs><path class="b" d="M54.89,37.46c1.46-2.92,3.65-5.23,6.56-6.94,2.92-1.71,6.11-2.56,9.57-2.56,4.19,0,7.52,1.28,9.98,3.83,2.46,2.55,3.69,6.04,3.69,10.46,0,2.14-.13,4.32-.38,6.53-.25,2.21-.72,5.02-1.4,8.44l-9.57,49.15h-16.34l9.5-49.15c.46-2.32.77-4.18.96-5.57.18-1.39.27-2.43.27-3.11,0-1.82-.4-3.21-1.2-4.17-.8-.96-1.97-1.44-3.52-1.44-2.19,0-3.93,1.03-5.23,3.08s-2.45,5.79-3.45,11.21l-9.5,49.15h-16.41l9.64-49.15c.36-1.91.65-3.62.85-5.13s.31-2.69.31-3.55c0-1.82-.41-3.21-1.23-4.17s-2.01-1.44-3.55-1.44c-2.14,0-3.84.99-5.09,2.97-1.25,1.98-2.4,5.75-3.45,11.31l-9.5,49.15H0L14.83,29.8h14.56l-1.5,7.93c1.87-3.1,4.18-5.5,6.94-7.21,2.76-1.71,5.71-2.56,8.85-2.56s5.71.85,7.69,2.56,3.16,4.02,3.52,6.94Z"/><path class="b" d="M151.89,103.84c-3.51,1.5-7.12,2.63-10.83,3.38-3.71.75-7.46,1.13-11.25,1.13-10.3,0-18.38-2.83-24.23-8.48-5.86-5.65-8.78-13.38-8.78-23.17,0-14.45,4.18-26.18,12.54-35.21,8.36-9.02,19.29-13.54,32.78-13.54,4.47,0,8.64.47,12.51,1.4,3.87.93,7.54,2.38,11.01,4.34l-3.62,18.32c-2.78-2.64-5.72-4.6-8.82-5.88-3.1-1.28-6.43-1.91-9.98-1.91-7.75,0-14.05,2.83-18.9,8.48-4.85,5.65-7.28,12.99-7.28,22.01,0,5.83,1.39,10.19,4.17,13.06,2.78,2.87,7,4.31,12.65,4.31,3.19,0,6.6-.59,10.22-1.78,3.62-1.18,7.51-2.96,11.66-5.33l-3.83,18.87Z"/><path class="b" d="M196.74,92.22l-8.41,43.27h-20.03l20.58-105.68h20.03l-2.26,11.48c3.24-4.47,6.72-7.8,10.46-10.01,3.74-2.21,7.72-3.32,11.96-3.32,6.7,0,11.99,2.5,15.86,7.49,3.87,4.99,5.81,11.79,5.81,20.41,0,5.88-.71,11.78-2.12,17.71-1.41,5.92-3.4,11.3-5.95,16.13-3.14,5.88-7.11,10.46-11.89,13.74s-9.84,4.92-15.18,4.92-9.3-1.41-12.58-4.24-5.38-6.79-6.29-11.89ZM211.98,92.08c5.06,0,9.42-3.24,13.09-9.71,3.67-6.47,5.5-14.29,5.5-23.45,0-4.6-.95-8.18-2.84-10.73-1.89-2.55-4.52-3.83-7.9-3.83-5.2,0-9.7,3.16-13.5,9.47-3.81,6.31-5.71,13.98-5.71,23,0,4.74,1.03,8.47,3.08,11.18,2.05,2.71,4.81,4.07,8.27,4.07Z"/><path class="b" d="M263.53,56.88h72.46l-2.94,18.39h-72.46l2.94-18.39Z"/><path class="c" d="M406.88,100.62c-2.42,12.62-6.77,21.57-13.06,26.83s-15.65,7.9-28.1,7.9c-4.47,0-8.77-.34-12.92-1.03-4.15-.68-8.2-1.69-12.17-3.01l3.69-18.12c3.42,2.05,7.01,3.59,10.77,4.61s7.62,1.54,11.59,1.54c5.7,0,10.15-1.33,13.36-4s5.34-6.83,6.39-12.48l1.85-9.09c-2.46,3.78-5.46,6.64-8.99,8.58-3.53,1.94-7.49,2.91-11.86,2.91-7.16,0-12.84-2.38-17.06-7.14-4.22-4.76-6.32-11.2-6.32-19.31,0-6.33.96-12.71,2.87-19.14s4.53-12.1,7.86-17.02c3.19-4.69,7.08-8.36,11.66-11.01,4.58-2.64,9.29-3.96,14.12-3.96s8.65,1.25,11.72,3.76c3.08,2.51,5.09,6.11,6.05,10.8l2.39-12.44h20.03l-13.88,70.82ZM374.95,89.55c5.24,0,9.78-3.02,13.6-9.06,3.83-6.04,5.74-13.32,5.74-21.84,0-4.56-.93-8.1-2.8-10.63-1.87-2.53-4.44-3.79-7.72-3.79-5.2,0-9.71,3.02-13.54,9.06-3.83,6.04-5.74,13.27-5.74,21.7,0,4.65.91,8.24,2.73,10.77,1.82,2.53,4.4,3.79,7.72,3.79Z"/><path class="c" d="M429.71,77.25c0-14.67,3.79-26.58,11.38-35.72,7.59-9.14,17.47-13.71,29.63-13.71,9.8,0,17.45,2.75,22.97,8.24,5.51,5.49,8.27,13.11,8.27,22.87,0,14.72-3.79,26.64-11.38,35.75-7.59,9.12-17.47,13.67-29.63,13.67-9.8,0-17.46-2.75-22.97-8.24-5.51-5.49-8.27-13.11-8.27-22.87ZM481.8,59.61c0-4.97-1.06-8.79-3.18-11.48-2.12-2.69-5.12-4.03-8.99-4.03-5.61,0-10.3,3.1-14.08,9.3-3.78,6.2-5.67,13.97-5.67,23.31,0,4.83,1.1,8.62,3.32,11.38,2.21,2.76,5.21,4.14,8.99,4.14,5.51,0,10.16-3.11,13.95-9.33,3.78-6.22,5.67-13.98,5.67-23.28Z"/><path class="c" d="M550.7,81.42c-.18.91-.33,1.74-.44,2.5-.11.75-.17,1.24-.17,1.47,0,2.05.71,3.5,2.12,4.34,1.41.84,3.9,1.26,7.45,1.26h19l-3.08,15.38h-20.3c-9.34,0-15.95-1.28-19.82-3.83-3.87-2.55-5.81-6.79-5.81-12.71,0-1.05.11-2.37.34-3.96.23-1.59.55-3.39.96-5.4l13.88-65.08h-20.92l2.94-15.38h40.88l-17.02,81.42Z"/><path class="c" d="M668.42,62.69l-8.41,43.68h-19.89l1.71-8.54c-3.05,3.51-6.55,6.14-10.49,7.9-3.94,1.75-8.42,2.63-13.43,2.63-6.88,0-12.34-1.99-16.37-5.98-4.03-3.99-6.05-9.38-6.05-16.17,0-9.8,3.54-17.28,10.63-22.46,7.09-5.17,17.31-7.76,30.66-7.76h13.19l.55-3.35c.04-.27.08-.54.1-.79.02-.25.03-.65.03-1.2,0-2.6-1.16-4.58-3.49-5.95s-5.7-2.05-10.12-2.05c-3.74,0-7.96.65-12.68,1.95s-9.76,3.22-15.14,5.78l3.21-17.09c5.15-1.78,10.01-3.11,14.59-4s8.94-1.33,13.09-1.33c9.89,0,17.39,1.73,22.49,5.2,5.1,3.46,7.66,8.54,7.66,15.24,0,1.78-.16,3.87-.48,6.29-.32,2.42-.78,5.08-1.37,8ZM639.43,70.14c-7.84,0-13.65,1.19-17.43,3.55-3.78,2.37-5.67,6.04-5.67,11.01,0,2.87.92,5.24,2.77,7.11,1.85,1.87,4.2,2.8,7.08,2.8,5.38,0,9.89-2.12,13.54-6.36,3.65-4.24,6.13-10.28,7.45-18.12h-7.72Z"/><path class="c" d="M751.89,56.6l-9.64,49.77h-20.03l9.09-46.62c.23-1.18.4-2.38.51-3.59.11-1.21.17-2.43.17-3.66,0-2.64-.66-4.66-1.98-6.05-1.32-1.39-3.24-2.08-5.74-2.08-3.74,0-6.94,1.64-9.6,4.92s-4.59,7.98-5.78,14.08l-8.27,43h-20.03l14.83-76.56h20.03l-2.19,11.48c2.19-4.19,5.2-7.46,9.02-9.81,3.83-2.35,8.04-3.52,12.65-3.52,5.83,0,10.32,1.58,13.47,4.75,3.14,3.17,4.72,7.65,4.72,13.43,0,1.37-.1,2.92-.31,4.65-.21,1.73-.51,3.67-.92,5.81Z"/><path class="c" d="M828.31,100.62c-2.42,12.62-6.77,21.57-13.06,26.83s-15.65,7.9-28.1,7.9c-4.47,0-8.77-.34-12.92-1.03-4.15-.68-8.2-1.69-12.17-3.01l3.69-18.12c3.42,2.05,7.01,3.59,10.77,4.61s7.62,1.54,11.59,1.54c5.7,0,10.15-1.33,13.36-4s5.34-6.83,6.39-12.48l1.85-9.09c-2.46,3.78-5.46,6.64-8.99,8.58-3.53,1.94-7.49,2.91-11.86,2.91-7.16,0-12.84-2.38-17.06-7.14-4.22-4.76-6.32-11.2-6.32-19.31,0-6.33.96-12.71,2.87-19.14s4.53-12.1,7.86-17.02c3.19-4.69,7.08-8.36,11.66-11.01,4.58-2.64,9.29-3.96,14.12-3.96s8.65,1.25,11.72,3.76c3.08,2.51,5.09,6.11,6.05,10.8l2.39-12.44h20.03l-13.88,70.82ZM796.39,89.55c5.24,0,9.78-3.02,13.6-9.06,3.83-6.04,5.74-13.32,5.74-21.84,0-4.56-.93-8.1-2.8-10.63-1.87-2.53-4.44-3.79-7.72-3.79-5.2,0-9.71,3.02-13.54,9.06-3.83,6.04-5.74,13.27-5.74,21.7,0,4.65.91,8.24,2.73,10.77,1.82,2.53,4.4,3.79,7.72,3.79Z"/></svg>